<?xml version="1.0" standalone="no"?>
<!DOCTYPE svg PUBLIC "-//W3C//DTD SVG 20010904//EN"
 "http://www.w3.org/TR/2001/REC-SVG-20010904/DTD/svg10.dtd">
<svg version="1.0" xmlns="http://www.w3.org/2000/svg"
 width="100.000000pt" height="100.000000pt" viewBox="0 0 100.000000 100.000000"
 preserveAspectRatio="xMidYMid meet">
<metadata>
Created by potrace 1.11, written by Peter Selinger 2001-2013
</metadata>
<g transform="translate(0.000000,100.000000) scale(0.100000,-0.100000)"
fill="#000000" stroke="none">
<path d="M244 820 c-12 -5 -34 -24 -48 -43 l-27 -35 3 -251 3 -251 33 -32 c32
-32 34 -33 135 -36 94 -3 104 -6 130 -30 l27 -26 28 26 c25 24 35 27 129 30
101 3 103 4 135 36 l33 32 0 258 c0 241 -1 259 -20 284 -11 15 -33 32 -49 38
-35 12 -481 13 -512 0z m516 -26 c15 -10 33 -28 39 -41 7 -15 11 -111 11 -259
l0 -236 -34 -34 -34 -34 -98 0 c-87 0 -100 -2 -121 -22 l-23 -21 -23 21 c-21
20 -34 22 -121 22 l-98 0 -34 34 -34 34 0 237 c0 254 5 280 54 303 12 6 126
11 254 11 203 1 237 -1 262 -15z"/>
<path d="M241 754 c-20 -25 -21 -39 -21 -256 l0 -229 25 -24 24 -25 234 0
c232 0 234 0 256 24 20 21 21 31 18 137 l-3 114 -2 -117 c-2 -108 -4 -118 -24
-132 -19 -13 -60 -16 -250 -16 -215 0 -229 1 -248 20 -19 19 -20 33 -20 249 0
203 2 231 18 250 16 20 27 21 222 24 l205 2 -207 3 -207 2 -20 -26z"/>
<path d="M466 684 c-37 -36 -4 -90 48 -80 50 10 63 53 24 80 -29 20 -52 20
-72 0z m65 -4 c26 -15 24 -48 -5 -61 -45 -21 -87 26 -54 59 15 15 33 15 59 2z"/>
<path d="M771 594 c0 -11 3 -14 6 -6 3 7 2 16 -1 19 -3 4 -6 -2 -5 -13z"/>
<path d="M430 555 c0 -18 5 -25 20 -25 18 0 20 -7 20 -80 0 -79 0 -80 -25 -80
-20 0 -25 -5 -25 -25 0 -25 0 -25 95 -25 95 0 95 0 95 25 0 20 -5 25 -24 25
-15 0 -26 7 -29 18 -4 13 -5 11 -6 -5 -1 -18 4 -23 24 -23 16 0 25 -6 25 -15
0 -12 -16 -15 -85 -15 -69 0 -85 3 -85 15 0 9 9 15 25 15 25 0 25 1 25 90 0
83 -1 90 -20 90 -11 0 -20 7 -20 15 0 12 13 15 55 15 l54 0 4 -77 3 -78 2 83
2 82 -65 0 c-63 0 -65 -1 -65 -25z"/>
<path d="M772 545 c0 -16 2 -22 5 -12 2 9 2 23 0 30 -3 6 -5 -1 -5 -18z"/>
</g>
</svg>
